<svg width="90" height="90" viewBox="0 0 90 90" fill="none" xmlns="http://www.w3.org/2000/svg">
<path d="M70.7437 21.8291L59.7248 4.53692C58.908 3.25797 57.8225 2.20887 56.5582 1.47655C55.2939 0.744238 53.8871 0.349796 52.4544 0.325913L31.5431 0H31.5C20.7039 0 12.4206 1.9618 7.08563 11.5361C2.11875 20.4482 0 35.6295 0 62.2974V65.5565H6.85444L2.442 90H8.55637L12.9688 65.5565H15C19.8997 65.604 24.62 63.5559 28.1415 59.8546C31.3251 56.5454 33.6214 52.018 34.7826 46.7623L34.7931 46.715L39.9386 19.9286H33.8092L28.9382 45.2863C27.4547 51.9431 23.0186 59.0382 15 59.0382H6.01125C6.17419 35.9664 8.10788 22.2876 12.2184 14.9107C15.6684 8.71839 20.7113 6.52031 31.4792 6.51725L52.3682 6.84317C52.8457 6.85106 53.3147 6.98251 53.7362 7.22662C54.1576 7.47073 54.5194 7.82047 54.7916 8.24683L67.2563 27.8055L84 30.8373V34.2918L81.2078 50.4695C80.3837 55.2444 78.975 57.6496 73.1981 58.4035L49.5158 62.8052L49.3592 90H55.3592L55.4842 68.3078L73.9905 64.8653C78.183 64.3054 81.2762 62.8376 83.4454 60.3794C85.2997 58.2776 86.4283 55.5925 87.1052 51.6709L90 34.8976V25.3155L70.7437 21.8291Z" fill="white"/>
</svg>
